<?xml version="1.0" encoding="utf-8"?>
<!-- Generator: Adobe Illustrator 21.0.0, SVG Export Plug-In . SVG Version: 6.00 Build 0)  -->
<svg version="1.1" id="Layer_1" xmlns="http://www.w3.org/2000/svg" xmlns:xlink="http://www.w3.org/1999/xlink" x="0px" y="0px"
	 viewBox="0 0 512 512" style="enable-background:new 0 0 512 512;" xml:space="preserve">
<style type="text/css">
	.st0{fill:#EEC09D;}
	.st1{fill:#FFFFFF;}
	.st2{fill:#E8B14D;}
	.st3{fill:#FAF8D2;}
	.st4{fill:#CD6E61;}
	.st5{fill:#D79C8C;}
	.st6{fill:#88C057;}
	.st7{fill:#ED3F32;}
	.st8{display:none;}
	.st9{display:inline;fill:#311363;}
	.st10{fill:#8D8883;}
	.st11{display:none;fill:#FFFFFF;}
	.st12{fill:none;}
	.st13{font-family:'Noteworthy-Bold';}
	.st14{font-size:72px;}
</style>
<path class="st0" d="M477,275c12.5,0,22.6-10.1,22.6-22.6c0-12.5-10.1-22.6-22.6-22.6l-218.8,0l0,45.2L477,275z"/>
<g>
	<path class="st1" d="M49.2,299.7c-10.8-13.5-16.5-29.9-16.5-47.3c0-20.3,7.9-39.3,22.2-53.6l8.4,8.4
		c-12.1,12.1-18.7,28.2-18.7,45.3c0,14.7,4.8,28.5,13.9,39.9L49.2,299.7z"/>
	<path class="st1" d="M61.3,311.8l7.4-9.3c11.4,9.1,25.2,13.9,39.9,13.9l0,11.8C91.2,328.3,74.8,322.6,61.3,311.8z"/>
</g>
<g>
	<path class="st2" d="M187.3,188.6L187.3,188.6c1.2,4.9,4.2,9.2,8.5,12.1l0,0c6.3,4.2,9.7,11.5,9,19l0,0c-0.5,5,0.9,10.1,3.9,14.2
		l0,0c4.5,6.1,5.3,14.1,2,20.8l0,0c-2.2,4.5-2.6,9.7-1.2,14.6l0,0c2.2,7.2,0.1,15-5.3,20.2l0,0c-3.6,3.5-5.8,8.2-6.1,13.2l0,0
		c-0.4,7.5-5,14.1-11.9,17.1l0,0c-4.6,2-8.3,5.7-10.3,10.3l0,0c-3,6.9-9.6,11.5-17.1,11.9l0,0c-5,0.3-9.8,2.5-13.2,6.1l0,0
		c-5.1,5.4-12.9,7.5-20.2,5.3l0,0c-4.9-1.5-10.1-1-14.6,1.2l0,0c-6.7,3.3-14.8,2.6-20.8-2l0,0c-4.1-3-9.2-4.4-14.2-3.9l0,0
		c-7.5,0.8-14.8-2.7-19-9l0,0c-2.8-4.2-7.1-7.3-12.1-8.5l0,0c-7.3-1.8-13.1-7.6-14.9-14.9l0,0c-1.2-4.9-4.2-9.2-8.5-12.1l0,0
		c-6.3-4.2-9.7-11.5-9-19l0,0c0.5-5-0.9-10.1-3.9-14.2l0,0C4,265,3.2,257,6.5,250.2l0,0c2.2-4.5,2.6-9.7,1.2-14.6l0,0
		c-2.2-7.2-0.1-15,5.3-20.2l0,0c3.6-3.5,5.8-8.2,6.1-13.2l0,0c0.4-7.5,5-14.1,11.9-17.1l0,0c4.6-2,8.3-5.7,10.3-10.3l0,0
		c3-6.9,9.6-11.5,17.1-11.9l0,0c5-0.3,9.8-2.5,13.2-6.1l0,0c5.1-5.4,12.9-7.5,20.2-5.3l0,0c4.9,1.5,10.1,1,14.6-1.2l0,0
		c6.7-3.3,14.8-2.6,20.8,2l0,0c4.1,3,9.2,4.4,14.2,3.9l0,0c7.5-0.8,14.8,2.7,19,9l0,0c2.8,4.2,7.1,7.3,12.1,8.5l0,0
		C179.7,175.5,185.5,181.3,187.3,188.6z"/>
	
		<ellipse transform="matrix(0.7071 -0.7071 0.7071 0.7071 -146.7171 150.7007)" class="st3" cx="108.6" cy="252.5" rx="85.9" ry="85.9"/>
	
		<ellipse transform="matrix(0.7071 -0.7071 0.7071 0.7071 -99.6853 152.9115)" class="st4" cx="134.7" cy="196.8" rx="17.9" ry="17.9"/>
	
		<ellipse transform="matrix(0.7071 -0.7071 0.7071 0.7071 -137.7831 111.4281)" class="st4" cx="65.6" cy="222" rx="17.9" ry="17.9"/>
	
		<ellipse transform="matrix(0.7071 -0.7071 0.7071 0.7071 -131.2025 193.2167)" class="st4" cx="167.6" cy="255" rx="17.9" ry="17.9"/>
	
		<ellipse transform="matrix(0.7071 -0.7071 0.7071 0.7071 -187.0289 125.1096)" class="st4" cx="57.5" cy="288.3" rx="17.9" ry="17.9"/>
	
		<ellipse transform="matrix(0.7071 -0.7071 0.7071 0.7071 -182.5215 177.7458)" class="st4" cx="123.3" cy="309.2" rx="17.9" ry="17.9"/>
	<g>
		
			<ellipse transform="matrix(0.7071 -0.7071 0.7071 0.7071 -93.5766 152.4774)" class="st5" cx="137.3" cy="189.2" rx="3.6" ry="3.6"/>
		
			<ellipse transform="matrix(0.7071 -0.7071 0.7071 0.7071 -103.6978 148.285)" class="st5" cx="127.1" cy="199.3" rx="3.6" ry="3.6"/>
		
			<ellipse transform="matrix(0.7071 -0.7071 0.7071 0.7071 -101.7815 157.9721)" class="st5" cx="139.8" cy="201.8" rx="3.6" ry="3.6"/>
		
			<ellipse transform="matrix(0.7071 -0.7071 0.7071 0.7071 -132.3835 110.4957)" class="st5" cx="67.2" cy="215" rx="3.6" ry="3.6"/>
		
			<ellipse transform="matrix(0.7071 -0.7071 0.7071 0.7071 -142.5048 106.3033)" class="st5" cx="57.1" cy="225.2" rx="3.6" ry="3.6"/>
		
			<ellipse transform="matrix(0.7071 -0.7071 0.7071 0.7071 -140.5884 115.9904)" class="st5" cx="69.7" cy="227.7" rx="3.6" ry="3.6"/>
		
			<ellipse transform="matrix(0.7071 -0.7071 0.7071 0.7071 -123.1764 189.7097)" class="st5" cx="167.4" cy="243.5" rx="3.6" ry="3.6"/>
		
			<ellipse transform="matrix(0.7071 -0.7071 0.7071 0.7071 -138.7828 190.9796)" class="st5" cx="161.1" cy="263" rx="3.6" ry="3.6"/>
		
			<ellipse transform="matrix(0.7071 -0.7071 0.7071 0.7071 -135.6327 199.2442)" class="st5" cx="172.7" cy="263.3" rx="3.6" ry="3.6"/>
		
			<ellipse transform="matrix(0.7071 -0.7071 0.7071 0.7071 -181.6129 122.2541)" class="st5" cx="56.8" cy="280.4" rx="3.6" ry="3.6"/>
		
			<ellipse transform="matrix(0.7071 -0.7071 0.7071 0.7071 -192.5628 122.4883)" class="st5" cx="51.6" cy="293.7" rx="3.6" ry="3.6"/>
		
			<ellipse transform="matrix(0.7071 -0.7071 0.7071 0.7071 -186.9111 130.5863)" class="st5" cx="64.2" cy="290.9" rx="3.6" ry="3.6"/>
		
			<ellipse transform="matrix(0.7071 -0.7071 0.7071 0.7071 -178.0187 182.985)" class="st5" cx="131.9" cy="306.4" rx="3.6" ry="3.6"/>
		
			<ellipse transform="matrix(0.7071 -0.7071 0.7071 0.7071 -180.2494 172.2605)" class="st5" cx="117.8" cy="303.7" rx="3.6" ry="3.6"/>
		
			<ellipse transform="matrix(0.7071 -0.7071 0.7071 0.7071 -187.1782 179.2977)" class="st5" cx="122.8" cy="315.6" rx="3.6" ry="3.6"/>
	</g>
	<path class="st6" d="M138.9,222.1c-1.4-1.4-1.4-3.7,0-5.1s3.7-1.4,5.1,0c4.2,4.2,11,4.2,15.2,0c1.4-1.4,3.7-1.4,5.1,0
		s1.4,3.7,0,5.1C157.2,229.1,145.9,229.1,138.9,222.1z"/>
	<path class="st7" d="M81.1,201.5c-5.3-5.3-6.9-13.6-3.4-20.7c0.9-1.8,3-2.5,4.8-1.6c1.8,0.9,2.5,3,1.6,4.8
		c-2.6,5.3-0.5,11.8,4.8,14.4c1.8,0.9,2.5,3,1.6,4.8c-0.9,1.8-3,2.5-4.8,1.6C84,204,82.4,202.9,81.1,201.5z"/>
	<path class="st6" d="M87.7,317.6c-5.3-5.3-6.9-13.6-3.4-20.7c0.9-1.8,3-2.5,4.8-1.6c1.8,0.9,2.5,3,1.6,4.8
		c-1.3,2.6-1.5,5.5-0.6,8.2c0.9,2.7,2.8,4.9,5.4,6.2c1.8,0.9,2.5,3,1.6,4.8c-0.9,1.8-3,2.5-4.8,1.6C90.5,320,89,318.9,87.7,317.6z"
		/>
	<path class="st6" d="M152.2,301.2c-2.1-2.1-3.7-4.8-4.5-7.8c-0.5-1.9,0.6-3.9,2.5-4.4c1.9-0.5,3.9,0.6,4.4,2.5
		c0.8,2.8,2.6,5.1,5.1,6.5c2.5,1.4,5.4,1.7,8.2,1c1.9-0.5,3.9,0.6,4.4,2.5c0.5,1.9-0.6,3.9-2.5,4.4c-4.6,1.3-9.4,0.7-13.6-1.6
		C154.7,303.3,153.3,302.3,152.2,301.2z"/>
	<path class="st7" d="M81.5,282c-2.1-2.1-3.7-4.8-4.5-7.8c-0.5-1.9,0.6-3.9,2.5-4.4c1.9-0.5,3.9,0.6,4.4,2.5
		c0.8,2.8,2.6,5.1,5.1,6.5c2.5,1.4,5.4,1.7,8.2,1c1.9-0.5,3.9,0.6,4.4,2.5c0.5,1.9-0.6,3.9-2.5,4.4c-4.6,1.3-9.4,0.7-13.6-1.6
		C84,284.2,82.7,283.2,81.5,282z"/>
	<path class="st6" d="M41.2,260.9c-1-1-1.4-2.5-0.8-3.9c0.8-1.8,2.9-2.7,4.7-1.9c5.5,2.3,11.8-0.3,14.1-5.7c0.8-1.8,2.9-2.7,4.7-1.9
		c1.8,0.8,2.7,2.9,1.9,4.7c-3.8,9.1-14.4,13.3-23.5,9.5C41.9,261.5,41.5,261.2,41.2,260.9z"/>
	<path class="st7" d="M125.3,285c-1.2-1.2-1.4-3.1-0.4-4.6c2.7-3.9,6.8-6.6,11.5-7.4c4.7-0.9,9.5,0.2,13.4,2.9c1.6,1.1,2,3.4,0.9,5
		c-1.1,1.6-3.4,2-5,0.9c-2.4-1.6-5.2-2.2-8-1.7c-2.8,0.5-5.3,2.1-6.9,4.5c-1.1,1.6-3.3,2-5,0.9C125.6,285.3,125.4,285.1,125.3,285z"
		/>
</g>
<g class="st8">
	<path class="st9" d="M501.3,10.7C494.4,3.8,485.2,0,475.4,0c-9.8,0-19,3.8-25.9,10.7L245.2,215l51.8,51.8l21.5-21.5l10.8-10.8
		l40.2-40.2l-10.8-10.8l-40.2,40.2l-30.3-30.3L460.2,21.5c4-4,9.4-6.3,15.1-6.3c5.7,0,11.1,2.2,15.1,6.3c8.4,8.4,8.4,21.9,0,30.3
		L373.1,169.2l10.8,10.8L501.3,62.6C515.6,48.3,515.6,25,501.3,10.7z M307.8,234.5L297,245.3L266.7,215l10.8-10.8L307.8,234.5z"/>
	<path class="st9" d="M255,267.8l20.5,20.5l10.8-10.8l-51.8-51.8l-10.8,10.8l20.5,20.5l-18.8,18.8c-8.8-7.9-18.6-14.4-29-19.4
		l4.9-11.8l-14.1-5.8l-4.9,11.8c-10.9-3.8-22.4-6.1-34.3-6.8V231h-15.2v12.8c-11.8,0.7-23.3,3-34.3,6.8l-4.9-11.8l-14.1,5.8
		l4.9,11.8c-10.4,5.1-20.2,11.6-29,19.4l-9-9l-10.8,10.8l9,9c-7.9,8.8-14.4,18.6-19.4,29l-11.8-4.9l-5.8,14.1l11.7,4.9
		c-3.8,10.9-6.1,22.4-6.8,34.3H0v15.2h12.8c0.7,11.8,3,23.3,6.8,34.3l-11.7,4.9l5.8,14.1l11.7-4.9c5.1,10.4,11.6,20.2,19.4,29l-9,9
		l10.8,10.8l9-9c8.8,7.9,18.6,14.4,29,19.4l-4.9,11.8l14.1,5.8l4.9-11.8c10.9,3.8,22.4,6.1,34.3,6.8V512h15.2v-12.8
		c11.8-0.7,23.3-3,34.3-6.8l4.9,11.8l14.1-5.8l-4.9-11.8c10.4-5.1,20.2-11.6,29-19.4l9,9l10.8-10.8l-9-9c7.9-8.8,14.4-18.6,19.4-29
		l11.8,4.9l5.8-14.1l-11.8-4.9c3.8-10.9,6.1-22.4,6.8-34.3H281v-15.2h-12.8c-0.7-11.8-3-23.3-6.8-34.3l11.8-4.9l-5.8-14.1l-11.8,4.9
		c-5.1-10.4-11.6-20.2-19.4-29L255,267.8z M253.2,371.5c0,30.1-11.7,58.4-33,79.7c-21.3,21.3-49.6,33-79.7,33
		c-30.1,0-58.4-11.7-79.7-33c-21.3-21.3-33-49.6-33-79.7c0-30.1,11.7-58.4,33-79.7c21.3-21.3,49.6-33,79.7-33
		c27.6,0,53.6,9.8,74.1,27.8l-55.6,55.6c-5.4-3.4-11.7-5.4-18.6-5.4h0c-19.1,0-34.7,15.6-34.7,34.7c0,19.1,15.6,34.7,34.7,34.7
		s34.7-15.6,34.7-34.7c0-6.8-2-13.2-5.4-18.6l55.6-55.6C243.4,317.9,253.2,344,253.2,371.5z M160,371.5c0,10.7-8.7,19.5-19.5,19.5
		c-10.7,0-19.5-8.7-19.5-19.5c0-10.7,8.7-19.5,19.5-19.5l0-7.6v7.6c2.6,0,5,0.5,7.3,1.4l-12.7,12.7l10.8,10.8l12.7-12.7
		C159.5,366.5,160,368.9,160,371.5z"/>
</g>
<g>
	<path class="st10" d="M505.5,252.5c0-7.6-3-14.8-8.4-20.2c-5.4-5.4-12.5-8.3-20.2-8.4l-224.7,0l0,57H276h11.8l85.6,0l0-11.8
		l-85.6,0v-33.3l189.2,0c4.5,0,8.6,1.7,11.8,4.9c3.1,3.1,4.9,7.3,4.9,11.8c0,9.2-7.5,16.7-16.7,16.7l-88.3,0l0,11.8l88.3,0
		C492.7,281,505.5,268.2,505.5,252.5z M276,269.1h-11.8l0-33.3l11.8,0V269.1z"/>
</g>
<ellipse transform="matrix(0.7071 -0.7071 0.7071 0.7071 -145.3452 154.7177)" class="st10" cx="114.1" cy="252.8" rx="26.8" ry="26.8"/>
<circle class="st11" cx="320.8" cy="441.4" r="24.2"/>
<ellipse transform="matrix(0.7071 -0.7071 0.7071 0.7071 -145.4856 154.7888)" class="st1" cx="114.1" cy="253" rx="16.5" ry="16.5"/>
<polygon class="st10" points="246,224.2 234.2,224.2 234.2,246.8 140.4,246.8 114.1,246.8 114.1,258.7 234.2,258.7 234.2,281.3 
	246,281.3 "/>
<rect x="229.1" y="149.9" class="st12" width="274.9" height="73.3"/>
<text transform="matrix(1 0 0 1 280.3496 210.3685)"><tspan x="0" y="0" class="st7 st13 st14">Pizz</tspan><tspan x="133.8" y="0" class="st6 st13 st14">a</tspan></text>
<rect x="229.1" y="285.9" class="st12" width="274.9" height="73.3"/>
<text transform="matrix(1 0 0 1 297.8535 346.3685)"><tspan x="0" y="0" class="st6 st13 st14">Yol</tspan><tspan x="100" y="0" class="st7 st13 st14">o</tspan></text>
</svg>
